<?xml version="1.0" encoding="utf-8"?>
<!-- Generated by IcoMoon.io -->
<!DOCTYPE svg PUBLIC "-//W3C//DTD SVG 1.1//EN" "http://www.w3.org/Graphics/SVG/1.1/DTD/svg11.dtd">
<svg version="1.1" xmlns="http://www.w3.org/2000/svg" xmlns:xlink="http://www.w3.org/1999/xlink" width="640" height="640" viewBox="0 0 640 640"><g id="icomoon-ignore">
</g>
<path style="fill:#ff0000;" d="M458.63 452.041l-130.546-116.041 130.546-116.042c6.604-5.871 7.199-15.984 1.329-22.588-5.871-6.604-15.984-7.201-22.589-1.329l-133.37 118.551-133.37-118.55c-6.605-5.87-16.718-5.275-22.588 1.329-5.871 6.604-5.276 16.718 1.329 22.588l130.546 116.041-130.547 116.041c-6.604 5.871-7.199 15.984-1.329 22.589 3.162 3.557 7.553 5.37 11.964 5.37 3.78 0 7.576-1.332 10.624-4.041l133.371-118.552 133.37 118.552c3.049 2.709 6.843 4.041 10.624 4.041 4.411 0 8.804-1.814 11.965-5.37 5.87-6.605 5.275-16.718-1.329-22.589z"></path>
<path style="fill:#ff0000;" d="M304 640c-81.201 0-157.542-31.621-214.96-89.040s-89.040-133.759-89.040-214.96c0-81.202 31.622-157.542 89.040-214.96s133.758-89.040 214.96-89.040c81.201 0 157.542 31.622 214.96 89.040s89.040 133.759 89.040 214.96-31.621 157.542-89.040 214.96c-57.418 57.419-133.759 89.040-214.96 89.040zM304 64c-149.981 0-272 122.019-272 272s122.019 272 272 272 272-122.019 272-272-122.019-272-272-272z"></path>
</svg>
