<?xml version="1.0" encoding="utf-8"?>
<!-- Generated by IcoMoon.io -->
<!DOCTYPE svg PUBLIC "-//W3C//DTD SVG 1.1//EN" "http://www.w3.org/Graphics/SVG/1.1/DTD/svg11.dtd">
<svg version="1.1" xmlns="http://www.w3.org/2000/svg" xmlns:xlink="http://www.w3.org/1999/xlink" width="640" height="640" viewBox="0 0 640 640"><g id="icomoon-ignore">
</g>
<path d="M635.893 325.296c-1.518-1.686-37.822-41.766-94.593-82.316-33.492-23.923-67.187-43.016-100.146-56.75-41.773-17.405-82.535-26.23-121.154-26.23s-79.381 8.825-121.154 26.231c-32.96 13.733-66.654 32.827-100.146 56.75-56.77 40.549-93.075 80.629-94.593 82.315-5.477 6.085-5.477 15.322 0 21.407 1.518 1.687 37.823 41.767 94.593 82.317 33.492 23.923 67.186 43.017 100.146 56.75 41.773 17.405 82.535 26.23 121.154 26.23s79.381-8.825 121.154-26.23c32.959-13.733 66.653-32.827 100.146-56.75 56.771-40.55 93.075-80.63 94.593-82.316 5.476-6.085 5.476-15.323 0-21.408zM402.368 206.027c29.036 24.421 45.632 59.952 45.632 97.973 0 70.579-57.421 128-128 128-70.58 0-128-57.421-128-128 0-38.022 16.596-73.553 45.634-97.973 26.317-8.59 54.126-14.027 82.366-14.027 28.241 0 56.051 5.437 82.368 14.027zM522.136 403.383c-49.055 34.953-123.943 76.617-202.136 76.617s-153.081-41.664-202.135-76.617c-37.025-26.381-65.359-53.056-79.661-67.383 14.305-14.33 42.639-41.004 79.661-67.383 16.956-12.082 37-24.964 59.2-36.652-11.104 22.015-17.065 46.575-17.065 72.035 0 88.225 71.776 160 160 160 88.225 0 160-71.775 160-160 0-25.459-5.961-50.020-17.063-72.035 22.198 11.688 42.243 24.57 59.199 36.652 37.024 26.381 65.358 53.056 79.66 67.383-14.305 14.33-42.639 41.004-79.66 67.383z"></path>
</svg>
