<?xml version="1.0" encoding="utf-8"?>
<!-- Generated by IcoMoon.io -->
<!DOCTYPE svg PUBLIC "-//W3C//DTD SVG 1.1//EN" "http://www.w3.org/Graphics/SVG/1.1/DTD/svg11.dtd">
<svg version="1.1" xmlns="http://www.w3.org/2000/svg" xmlns:xlink="http://www.w3.org/1999/xlink" width="640" height="640" viewBox="0 0 640 640"><g id="icomoon-ignore">
</g>
<path d="M587.313 228.687l-96-96c-6.248-6.249-16.379-6.249-22.627 0s-6.249 16.379 0 22.627l68.687 68.686h-457.373c-8.836 0-16 7.163-16 16s7.164 16 16 16h457.373l-68.687 68.687c-6.249 6.248-6.249 16.379 0 22.627 3.125 3.124 7.219 4.686 11.314 4.686s8.189-1.562 11.313-4.687l96-96c6.249-6.248 6.249-16.378 0-22.626z"></path>
<path d="M560 416h-457.373l68.686-68.687c6.249-6.248 6.249-16.379 0-22.627s-16.379-6.248-22.627 0l-96 96c-6.249 6.248-6.249 16.379 0 22.627l96 96c3.125 3.125 7.219 4.687 11.314 4.687s8.189-1.562 11.313-4.687c6.249-6.248 6.249-16.379 0-22.627l-68.686-68.686h457.373c8.837 0 16-7.163 16-16s-7.163-16-16-16z"></path>
</svg>
